<?xml version="1.0" standalone="no"?>
<!DOCTYPE svg PUBLIC "-//W3C//DTD SVG 20010904//EN"
 "http://www.w3.org/TR/2001/REC-SVG-20010904/DTD/svg10.dtd">
<svg version="1.0" xmlns="http://www.w3.org/2000/svg"
 width="635.000000pt" height="393.000000pt" viewBox="0 0 635.000000 393.000000"
 preserveAspectRatio="xMidYMid meet">
<defs>
    <filter id="shadow">
      <feDropShadow dx="35" dy="50" stdDeviation="35" flood-color="black" flood-opacity="0.5"/>
    </filter>
  </defs>
<g transform="translate(0.000000,393.000000) scale(0.100000,-0.100000)"
fill="#0a0a1a" stroke="none" filter="url(#shadow)">
<path d="M3140 3439 c-19 -12 -57 -40 -85 -63 -108 -91 -114 -92 -230 -40
-152 68 -207 69 -225 5 -12 -44 -21 -50 -66 -44 -43 7 -57 -11 -94 -124 -70
-212 -101 -254 -211 -294 -50 -18 -64 -29 -74 -54 -8 -17 -28 -118 -45 -225
-31 -187 -71 -331 -103 -369 -21 -24 -54 -90 -77 -151 -26 -71 -26 -72 -85
-105 -108 -62 -196 -157 -310 -335 -84 -131 -111 -157 -261 -256 -173 -112
-198 -134 -266 -233 -29 -42 -59 -82 -68 -89 -9 -7 -40 -11 -82 -10 -37 1 -72
-2 -77 -7 -5 -6 -42 -80 -81 -165 -115 -246 -239 -490 -285 -560 -51 -77 -152
-181 -253 -262 l-73 -58 3130 0 c1722 0 3131 2 3131 4 0 3 -44 42 -97 88 -190
162 -349 285 -418 323 -81 44 -114 69 -246 182 -94 81 -123 95 -147 71 -24
-24 -128 -3 -171 36 -28 25 -120 146 -176 231 -21 33 -77 111 -123 173 -144
194 -232 333 -294 462 -113 237 -123 255 -160 296 -27 29 -53 45 -95 59 -95
29 -102 33 -123 67 -11 18 -34 69 -51 113 -79 205 -81 209 -134 260 -88 86
-346 242 -445 270 -49 14 -61 33 -156 260 -130 311 -201 455 -260 523 -41 48
-63 52 -114 21z"/>
</g>
</svg>
