<?xml version="1.0" standalone="no"?>
<!DOCTYPE svg PUBLIC "-//W3C//DTD SVG 20010904//EN"
 "http://www.w3.org/TR/2001/REC-SVG-20010904/DTD/svg10.dtd">
<svg version="1.0" xmlns="http://www.w3.org/2000/svg"
 width="570.000000pt" height="290.000000pt" viewBox="0 0 570.000000 290.000000"
 preserveAspectRatio="xMidYMid meet">
<defs>
    <filter id="shadow">
      <feDropShadow dx="35" dy="50" stdDeviation="35" flood-color="black" flood-opacity="0.5"/>
    </filter>
  </defs>
<g transform="translate(0.000000,290.000000) scale(0.100000,-0.100000)"
fill="#0a0a1a" stroke="none" filter="url(#shadow)">
<path d="M5300 2682 c-101 -104 -156 -135 -250 -140 -62 -4 -70 -1 -153 42
-48 25 -100 46 -115 46 -45 0 -427 -264 -671 -463 -69 -56 -88 -67 -109 -62
-32 8 -93 50 -160 110 l-53 48 -102 -69 c-56 -38 -207 -150 -337 -248 -480
-367 -557 -425 -659 -495 -57 -39 -113 -71 -124 -71 -10 0 -41 23 -67 52 l-48
52 -39 -27 c-21 -15 -69 -50 -108 -78 -65 -47 -73 -50 -113 -45 -23 3 -74 19
-112 35 -129 55 -118 58 -280 -66 -255 -194 -314 -234 -415 -283 -141 -69
-158 -69 -240 1 -108 92 -134 102 -189 74 -47 -25 -97 -28 -187 -11 -136 25
-175 22 -245 -20 -246 -152 -496 -294 -515 -294 -5 0 -9 -173 -9 -385 l0 -385
2850 0 2850 0 0 1254 0 1254 -96 91 c-108 104 -190 171 -207 171 -7 -1 -50
-40 -97 -88z"/>
</g>
</svg>
