<?xml version="1.0" standalone="no"?>
<!DOCTYPE svg PUBLIC "-//W3C//DTD SVG 20010904//EN"
 "http://www.w3.org/TR/2001/REC-SVG-20010904/DTD/svg10.dtd">
<svg version="1.0" xmlns="http://www.w3.org/2000/svg"
 width="898.000000pt" height="278.000000pt" viewBox="0 0 898.000000 278.000000"
 preserveAspectRatio="xMidYMid meet">
<defs>
    <filter id="shadow">
      <feDropShadow dx="35" dy="50" stdDeviation="35" flood-color="black" flood-opacity="0.5"/>
    </filter>
  </defs>
<g transform="translate(0.000000,278.000000) scale(0.100000,-0.100000)"
fill="#0a0a1a" stroke="none" filter="url(#shadow)">
<path d="M2409 2382 c-66 -43 -178 -167 -324 -357 -149 -195 -244 -297 -307
-325 -60 -27 -125 -26 -169 4 -34 23 -50 43 -172 208 -62 84 -100 111 -158
110 -86 -1 -150 -68 -245 -254 -36 -72 -88 -164 -115 -205 -58 -89 -75 -140
-95 -288 -38 -279 -69 -379 -147 -480 -18 -22 -116 -126 -218 -232 -103 -105
-216 -230 -251 -278 -61 -81 -158 -249 -158 -274 0 -8 1149 -11 4445 -11
l4445 0 -52 82 c-90 144 -183 308 -312 548 -37 69 -77 135 -89 148 -43 47 -74
26 -235 -155 -97 -109 -119 -138 -216 -292 -100 -156 -181 -214 -267 -191
-113 31 -248 167 -514 520 -189 250 -214 257 -391 105 -119 -103 -158 -125
-221 -125 -44 0 -50 3 -100 56 -57 60 -134 207 -231 439 -141 337 -237 502
-366 630 -162 160 -217 169 -326 56 -63 -65 -124 -160 -276 -430 -84 -148
-116 -180 -232 -237 -99 -49 -143 -86 -277 -237 -66 -75 -86 -75 -208 -5 -193
110 -285 194 -471 433 -60 77 -123 155 -140 174 -38 42 -158 121 -183 121 -10
0 -87 -40 -172 -90 -234 -136 -367 -184 -412 -148 -18 15 -150 193 -269 362
-45 66 -105 167 -132 225 -111 239 -128 268 -189 326 -63 60 -126 94 -175 95
-16 0 -50 -13 -75 -28z"/>
</g>
</svg>
