<?xml version="1.0" standalone="no"?>
<!DOCTYPE svg PUBLIC "-//W3C//DTD SVG 20010904//EN"
 "http://www.w3.org/TR/2001/REC-SVG-20010904/DTD/svg10.dtd">
<svg version="1.0" xmlns="http://www.w3.org/2000/svg"
 width="834.000000pt" height="299.000000pt" viewBox="0 0 834.000000 299.000000"
 preserveAspectRatio="xMidYMid meet">
  <defs>
    <filter id="shadow">
      <feDropShadow dx="3" dy="3" stdDeviation="5" flood-color="black" flood-opacity="0.5"/>
    </filter>
  </defs>
<g transform="translate(0.000000,299.000000) scale(0.100000,-0.100000)"
fill="#0a0a1a" stroke="none" filter="url(#shadow)">
<path d="M3267 2807 c-78 -30 -148 -84 -237 -184 -77 -88 -112 -112 -190 -133
-77 -21 -111 -45 -244 -173 l-128 -124 -107 4 c-122 5 -101 15 -303 -138 -134
-103 -226 -198 -328 -338 -85 -119 -167 -197 -329 -318 -64 -48 -175 -144
-247 -213 -178 -172 -205 -190 -289 -190 l-67 0 -88 -85 -88 -85 -65 0 c-61 0
-67 -2 -91 -31 -46 -54 -126 -196 -258 -459 -71 -140 -142 -272 -159 -292 -16
-20 -29 -39 -29 -42 0 -3 1871 -6 4158 -6 l4157 1 -39 34 c-21 19 -79 55 -129
81 -131 67 -169 111 -256 289 -86 177 -108 202 -333 382 -164 131 -190 158
-337 345 -88 112 -150 156 -377 268 -158 77 -209 107 -234 137 -17 21 -60 97
-95 168 -50 104 -77 145 -130 203 -38 40 -85 82 -106 93 -63 32 -167 52 -237
45 l-62 -5 -78 54 c-42 30 -107 73 -144 95 -37 22 -96 62 -130 88 -110 84
-126 93 -181 102 -68 11 -184 -3 -240 -29 -23 -10 -127 -96 -231 -189 l-190
-171 -80 -22 c-102 -27 -108 -30 -185 -101 -35 -32 -72 -58 -82 -58 -25 0 -42
29 -74 130 -35 105 -71 145 -170 184 -208 83 -333 163 -405 258 -19 26 -66
105 -105 175 -81 149 -163 241 -231 261 -61 18 -142 14 -207 -11z"/>
</g>
</svg>
