<?xml version="1.0" standalone="no"?>
<!DOCTYPE svg PUBLIC "-//W3C//DTD SVG 20010904//EN"
 "http://www.w3.org/TR/2001/REC-SVG-20010904/DTD/svg10.dtd">
<svg version="1.0" xmlns="http://www.w3.org/2000/svg"
 width="862.000000pt" height="290.000000pt" viewBox="0 0 862.000000 290.000000"
 preserveAspectRatio="xMidYMid meet">
<defs>
    <filter id="shadow">
      <feDropShadow dx="35" dy="50" stdDeviation="35" flood-color="black" flood-opacity="0.5"/>
    </filter>
  </defs>
<g transform="translate(0.000000,290.000000) scale(0.100000,-0.100000)"
fill="#3e3e3e" stroke="none">
<path d="M5295 2683 c-96 -101 -169 -143 -251 -143 -43 0 -70 9 -153 51 -74
37 -106 49 -123 43 -54 -16 -510 -340 -665 -471 -44 -37 -71 -53 -91 -53 -36
0 -90 35 -159 103 l-53 51 -32 -16 c-50 -23 -226 -152 -575 -419 -359 -274
-529 -399 -591 -431 l-44 -23 -48 53 c-27 28 -55 52 -62 52 -7 0 -29 -13 -48
-29 -19 -15 -62 -47 -94 -70 -75 -52 -119 -54 -221 -11 -38 17 -86 33 -105 36
-41 7 -59 -4 -280 -175 -160 -124 -279 -200 -370 -237 -82 -33 -110 -31 -162
11 -133 107 -152 116 -202 96 -70 -28 -103 -31 -192 -15 -100 17 -160 20 -194
9 -13 -4 -82 -44 -154 -89 -73 -44 -198 -117 -278 -161 l-147 -80 -1 -382 0
-383 4310 0 4310 0 0 649 0 649 -62 -27 c-53 -22 -78 -26 -158 -26 -110 0
-138 10 -318 119 -138 83 -206 116 -234 116 -13 0 -39 -11 -58 -24 l-35 -24
-53 49 c-116 106 -412 279 -476 279 -17 0 -58 -7 -91 -15 -33 -8 -83 -14 -112
-15 -47 0 -55 3 -75 31 -34 46 -130 115 -194 138 -31 12 -127 30 -217 42 -199
25 -234 33 -322 76 -63 32 -100 66 -385 354 -332 335 -402 400 -435 398 -11
-1 -55 -39 -100 -86z"/>
</g>
</svg>
